<svg id="visual" viewBox="0 0 900 600" width="900" height="600" xmlns="http://www.w3.org/2000/svg" xmlns:xlink="http://www.w3.org/1999/xlink" version="1.1"><rect x="0" y="0" width="900" height="600" fill="#2c9ed8"></rect><g transform="translate(452.7810533436233 286.7959953626454)"><path d="M143 -184C193.6 -160.1 248.5 -129.4 279.9 -79.8C311.3 -30.3 319.2 38 305.4 105C291.6 172 256 237.7 201.5 265.6C146.9 293.6 73.5 283.8 13.8 264.8C-45.9 245.9 -91.8 217.7 -149.9 190.9C-207.9 164.1 -278 138.6 -304.3 91C-330.7 43.4 -313.2 -26.4 -289.1 -91.9C-265 -157.4 -234.2 -218.6 -184.9 -243C-135.6 -267.3 -67.8 -254.6 -10.8 -239.8C46.2 -225 92.5 -208 143 -184" fill="#227dac"></path></g></svg>