<svg id="visual" viewBox="0 0 900 600" width="900" height="600" xmlns="http://www.w3.org/2000/svg" xmlns:xlink="http://www.w3.org/1999/xlink" version="1.1"><rect x="0" y="0" width="900" height="600" fill="#77d071"></rect><defs><linearGradient id="grad1_0" x1="33.3%" y1="100%" x2="100%" y2="0%"><stop offset="20%" stop-color="#77d071" stop-opacity="1"></stop><stop offset="80%" stop-color="#77d071" stop-opacity="1"></stop></linearGradient></defs><defs><linearGradient id="grad2_0" x1="0%" y1="100%" x2="66.7%" y2="0%"><stop offset="20%" stop-color="#77d071" stop-opacity="1"></stop><stop offset="80%" stop-color="#77d071" stop-opacity="1"></stop></linearGradient></defs><g transform="translate(900, 600)"><path d="M-486.7 0C-482.7 -66.6 -478.7 -133.2 -449.7 -186.3C-420.7 -239.3 -366.8 -278.8 -318.9 -318.9C-271.1 -359 -229.3 -399.7 -177.2 -427.8C-125 -455.8 -62.5 -471.3 0 -486.7L0 0Z" fill="#5fa55a"></path></g><g transform="translate(0, 0)"><path d="M486.7 0C467.2 56.8 447.7 113.6 428.7 177.6C409.7 241.5 391.2 312.5 344.2 344.2C297.2 375.8 221.7 368.1 159.6 385.3C97.5 402.5 48.7 444.6 0 486.7L0 0Z" fill="#5fa55a"></path></g></svg>