<svg id="visual" viewBox="0 0 900 600" width="900" height="600" xmlns="http://www.w3.org/2000/svg" xmlns:xlink="http://www.w3.org/1999/xlink" version="1.1"><rect x="0" y="0" width="900" height="600" fill="#d90573"></rect><path d="M299 0L272.3 14.3C245.7 28.7 192.3 57.3 163.2 85.8C134 114.3 129 142.7 142.5 171.2C156 199.7 188 228.3 213 257C238 285.7 256 314.3 270.5 343C285 371.7 296 400.3 280.2 428.8C264.3 457.3 221.7 485.7 224.8 514.2C228 542.7 277 571.3 301.5 585.7L326 600L0 600L0 585.7C0 571.3 0 542.7 0 514.2C0 485.7 0 457.3 0 428.8C0 400.3 0 371.7 0 343C0 314.3 0 285.7 0 257C0 228.3 0 199.7 0 171.2C0 142.7 0 114.3 0 85.8C0 57.3 0 28.7 0 14.3L0 0Z" fill="#9f0052" stroke-linecap="round" stroke-linejoin="miter"></path></svg>