<svg id="visual" viewBox="0 0 900 600" width="900" height="600" xmlns="http://www.w3.org/2000/svg" xmlns:xlink="http://www.w3.org/1999/xlink" version="1.1"><rect x="0" y="0" width="900" height="600" fill="#fea04f"></rect><defs><linearGradient id="grad1_0" x1="33.3%" y1="0%" x2="100%" y2="100%"><stop offset="20%" stop-color="#fea04f" stop-opacity="1"></stop><stop offset="80%" stop-color="#fea04f" stop-opacity="1"></stop></linearGradient></defs><defs><linearGradient id="grad2_0" x1="0%" y1="0%" x2="66.7%" y2="100%"><stop offset="20%" stop-color="#fea04f" stop-opacity="1"></stop><stop offset="80%" stop-color="#fea04f" stop-opacity="1"></stop></linearGradient></defs><g transform="translate(900, 0)"><path d="M0 486.7C-56.2 453.4 -112.5 420.1 -161.9 390.8C-211.3 361.5 -253.8 336.3 -305.5 305.5C-357.1 274.6 -418 238.1 -449.7 186.3C-481.4 134.4 -484.1 67.2 -486.7 0L0 0Z" fill="#fa8925"></path></g><g transform="translate(0, 600)"><path d="M0 -486.7C65.4 -482.8 130.8 -478.8 186.3 -449.7C241.7 -420.6 287.2 -366.5 312.5 -312.5C337.8 -258.6 343 -204.8 368.6 -152.7C394.3 -100.6 440.5 -50.3 486.7 0L0 0Z" fill="#fa8925"></path></g></svg>